<svg id="Capa_1" enable-background="new 0 0 512 512" height="512" viewBox="0 0 512 512" width="512" xmlns="http://www.w3.org/2000/svg"><g><path d="m256 376c-34.444 0-65.321-14.789-87.226-38.112l-52.39-40.02-40.384-14.842-18.369 10.605-26.81 44.079 8.873 52.87c45.631 73.192 126.523 121.42 216.306 121.42 2.825 0 5.565-.331 8.366-.423l18.803-138.957c-9.474 2.21-24.095 3.38-27.169 3.38z" fill="#ff6759"/><path d="m370.43 290.206c-4.336 14.453-11.186 27.671-20.268 39.28-16.606 21.226-39.911 36.817-66.993 43.134l-27.169 27.169-40.605 40.605c-5.859 5.859-5.859 15.352 0 21.211l40.605 40.606 8.366 9.366c84.325-2.743 171.45-51.068 216.625-135.623z" fill="#ffdf40"/><path d="m480.991 375.954-110.561-85.748c-4.336 14.453-11.186 27.671-20.268 39.28-16.606 21.226-39.911 36.817-66.993 43.134l-27.169 27.169v102.422l8.366 9.366c84.325-2.743 171.45-51.068 216.625-135.623z" fill="#ffbe40"/><path d="m472.304 121.417-129.08 52.692c18.59 19.792 32.776 49.958 32.776 81.891 0 11.964-2.294 23.293-5.57 34.206l24.965 93.162c2.118 7.929 10.26 12.749 18.369 10.605l67.227-18.019c17.962-33.612 31.009-76.459 31.009-119.954 0-49.468-15.317-95.488-39.696-134.583z" fill="#59abff"/><path d="m256 0c-2.825 0-5.565.331-8.366.423l-18.803 138.957c8.765-2.045 17.791-3.38 27.169-3.38 31.291 0 63.864 13.239 87.224 38.11l92.776 24.864c4.034 1.066 8.058.411 11.382-1.494 3.442-1.992 5.962-5.273 6.987-9.111l17.935-66.951c-46.63-74.774-127.753-121.418-216.304-121.418z" fill="#443d66"/><path d="m296.605 50.395-40.605-40.606-8.366-9.366c-84.323 2.743-171.448 51.067-216.623 135.619l110.557 85.756c12.57-41.722 46.121-72.819 87.263-82.418l27.169-27.169 40.605-40.605c5.86-5.86 5.86-15.352 0-21.211z" fill="#ffdf40"/><path d="m296.605 50.395-40.605-40.606v102.422l40.605-40.605c5.86-5.86 5.86-15.352 0-21.211z" fill="#ffbe40"/><path d="m136 256c0-11.964 2.294-23.291 5.568-34.202l-24.963-93.166c-2.178-8.15-10.518-12.697-18.369-10.605l-67.225 18.016c-18.121 33.915-31.011 76.769-31.011 119.957 0 49.466 15.315 95.486 39.694 134.581l17.937-66.949c2.1-7.859 10.205-12.779 18.369-10.605l92.774 24.862c-22.056-23.482-32.774-56.261-32.774-81.889z" fill="#a0e65c"/><g><g><path d="m256 121c-74.399 0-135 60.601-135 135s60.601 135 135 135 135-60.601 135-135-60.601-135-135-135z" fill="#f3f5f9"/></g></g><path d="m391 256c0 74.399-60.601 135-135 135v-270c74.399 0 135 60.601 135 135z" fill="#d8e0f0"/><g><circle cx="196" cy="256" fill="#4d4d80" r="15"/></g><g><circle cx="256" cy="256" fill="#4d4d80" r="15"/></g><g><circle cx="316" cy="256" fill="#443d66" r="15"/></g><path d="m271 256c0 8.401-6.599 15-15 15v-30c8.401 0 15 6.599 15 15z" fill="#443d66"/></g></svg>