<svg height="512" viewBox="0 0 128 128" width="512" xmlns="http://www.w3.org/2000/svg" xmlns:xlink="http://www.w3.org/1999/xlink"><linearGradient id="a" gradientUnits="userSpaceOnUse" x1="107.655" x2="18.616" y1="110.606" y2="21.568"><stop offset="0" stop-color="#ff637b"/><stop offset="1" stop-color="#fdd856"/></linearGradient><path d="m55.3 23.613a1.75 1.75 0 0 1 2.645-2.292 10.815 10.815 0 0 0 2.794 2.3 1.75 1.75 0 1 1 -1.739 3.038 14.334 14.334 0 0 1 -3.7-3.046zm10.787-23.613a14.289 14.289 0 0 0 -14.272 14.27 1.75 1.75 0 0 0 3.5 0 10.773 10.773 0 1 1 15.623 9.622 1.75 1.75 0 1 0 1.578 3.124 14.275 14.275 0 0 0 -6.429-27.016zm-6.272 14.27a6.273 6.273 0 1 1 6.272 6.273 6.279 6.279 0 0 1 -6.272-6.273zm3.5 0a2.773 2.773 0 1 0 2.772-2.77 2.775 2.775 0 0 0 -2.772 2.77zm12.87 103.63a10.1 10.1 0 1 1 -10.1-10.1 10.11 10.11 0 0 1 10.1 10.1zm-3.5 0a6.6 6.6 0 1 0 -6.6 6.6 6.605 6.605 0 0 0 6.6-6.6zm25.115-83.526a6.968 6.968 0 1 1 9.855 0 6.975 6.975 0 0 1 -9.854 0zm2.475-2.475a3.466 3.466 0 1 0 0-4.9 3.473 3.473 0 0 0 0 4.901zm-62.949 62.95a11.142 11.142 0 1 1 -15.758 0 11.157 11.157 0 0 1 15.758 0zm-2.475 2.474a7.643 7.643 0 1 0 0 10.808 7.622 7.622 0 0 0 0-10.808zm91.064-31.236a8.011 8.011 0 1 1 -8.011-8.011 8.021 8.021 0 0 1 8.011 8.011zm-3.5 0a4.511 4.511 0 1 0 -4.515 4.513 4.516 4.516 0 0 0 4.515-4.513zm-108.145 12.186a12.186 12.186 0 1 1 12.186-12.186 12.2 12.2 0 0 1 -12.186 12.186zm8.686-12.186a8.686 8.686 0 1 0 -8.686 8.686 8.7 8.7 0 0 0 8.686-8.686zm86.906 34.286a1.751 1.751 0 0 0 -1.6 1.89 5.555 5.555 0 1 1 -5.536-5.091 1.75 1.75 0 0 0 0-3.5 9.056 9.056 0 1 0 9.024 8.3 1.75 1.75 0 0 0 -1.888-1.599zm-71.062-80.281a13.229 13.229 0 1 1 -18.709 0 13.244 13.244 0 0 1 18.709 0zm-2.474 2.475a9.73 9.73 0 1 0 0 13.76 9.7 9.7 0 0 0 .001-13.76zm-3.182 3.182a5.23 5.23 0 1 1 -3.7-1.532 5.238 5.238 0 0 1 3.701 1.532zm-2.476 2.475a1.729 1.729 0 1 0 0 2.446 1.72 1.72 0 0 0 .001-2.446zm-15.085 36.113h-2.625a1.75 1.75 0 1 0 0 3.5h2.625a1.75 1.75 0 0 0 0-3.5zm15.176 36.64h-2.625a1.75 1.75 0 1 0 0 3.5h2.625a1.75 1.75 0 0 0 0-3.5zm36.641 15.177h-2.626a1.75 1.75 0 0 0 0 3.5h2.626a1.75 1.75 0 0 0 0-3.5zm34.016-15.177a1.75 1.75 0 1 0 0 3.5h2.625a1.75 1.75 0 0 0 0-3.5z" fill="url(#a)"/></svg>